<mxfile host="app.diagrams.net" modified="2021-08-11T11:23:22.362Z" agent="5.0 (Windows NT 10.0; Win64; x64) AppleWebKit/537.36 (KHTML, like Gecko) Chrome/92.0.4515.131 Safari/537.36" etag="iugsZtU934-_KsxSIkH0" version="14.9.6" type="github">
  <diagram id="orTSg_j8eAI-luFpVZ8m" name="Page-1">
    <mxGraphModel dx="1185" dy="635" grid="1" gridSize="10" guides="1" tooltips="1" connect="1" arrows="1" fold="1" page="1" pageScale="1" pageWidth="850" pageHeight="1100" math="0" shadow="0">
      <root>
        <mxCell id="0" />
        <mxCell id="1" parent="0" />
        <mxCell id="FdSDNsu2-nvWExT22_5d-25" style="edgeStyle=orthogonalEdgeStyle;rounded=0;orthogonalLoop=1;jettySize=auto;html=1;entryX=0.5;entryY=0;entryDx=0;entryDy=0;" edge="1" parent="1" source="FdSDNsu2-nvWExT22_5d-1" target="FdSDNsu2-nvWExT22_5d-3">
          <mxGeometry relative="1" as="geometry" />
        </mxCell>
        <mxCell id="FdSDNsu2-nvWExT22_5d-1" value="SIEMin tarve IT-teollisuudessa" style="whiteSpace=wrap;html=1;" vertex="1" parent="1">
          <mxGeometry y="90" width="120" height="60" as="geometry" />
        </mxCell>
        <mxCell id="FdSDNsu2-nvWExT22_5d-24" style="edgeStyle=orthogonalEdgeStyle;rounded=0;orthogonalLoop=1;jettySize=auto;html=1;entryX=0.5;entryY=0;entryDx=0;entryDy=0;" edge="1" parent="1" source="FdSDNsu2-nvWExT22_5d-2" target="FdSDNsu2-nvWExT22_5d-1">
          <mxGeometry relative="1" as="geometry" />
        </mxCell>
        <mxCell id="FdSDNsu2-nvWExT22_5d-2" value="Alkusanat lokityökaluista" style="rounded=0;whiteSpace=wrap;html=1;" vertex="1" parent="1">
          <mxGeometry width="120" height="60" as="geometry" />
        </mxCell>
        <mxCell id="FdSDNsu2-nvWExT22_5d-12" style="edgeStyle=orthogonalEdgeStyle;rounded=0;orthogonalLoop=1;jettySize=auto;html=1;entryX=0.5;entryY=0;entryDx=0;entryDy=0;" edge="1" parent="1" source="FdSDNsu2-nvWExT22_5d-3" target="FdSDNsu2-nvWExT22_5d-4">
          <mxGeometry relative="1" as="geometry" />
        </mxCell>
        <mxCell id="FdSDNsu2-nvWExT22_5d-3" value="Lokitiedon&lt;br&gt;keruun käyttötapaukset ja kohteet" style="rounded=0;whiteSpace=wrap;html=1;" vertex="1" parent="1">
          <mxGeometry y="180" width="120" height="60" as="geometry" />
        </mxCell>
        <mxCell id="FdSDNsu2-nvWExT22_5d-13" style="edgeStyle=orthogonalEdgeStyle;rounded=0;orthogonalLoop=1;jettySize=auto;html=1;entryX=0.5;entryY=0;entryDx=0;entryDy=0;" edge="1" parent="1" source="FdSDNsu2-nvWExT22_5d-4" target="FdSDNsu2-nvWExT22_5d-6">
          <mxGeometry relative="1" as="geometry" />
        </mxCell>
        <mxCell id="FdSDNsu2-nvWExT22_5d-4" value="Testityökalun pystytys" style="rounded=0;whiteSpace=wrap;html=1;" vertex="1" parent="1">
          <mxGeometry y="270" width="120" height="60" as="geometry" />
        </mxCell>
        <mxCell id="FdSDNsu2-nvWExT22_5d-6" value="SIEM toimintoja ja sen käyttötapauksia" style="rounded=0;whiteSpace=wrap;html=1;" vertex="1" parent="1">
          <mxGeometry y="360" width="120" height="60" as="geometry" />
        </mxCell>
        <mxCell id="FdSDNsu2-nvWExT22_5d-15" style="edgeStyle=orthogonalEdgeStyle;rounded=0;orthogonalLoop=1;jettySize=auto;html=1;entryX=1;entryY=0.5;entryDx=0;entryDy=0;" edge="1" parent="1" source="FdSDNsu2-nvWExT22_5d-9" target="FdSDNsu2-nvWExT22_5d-4">
          <mxGeometry relative="1" as="geometry" />
        </mxCell>
        <mxCell id="FdSDNsu2-nvWExT22_5d-9" value="FortiSIEM ja sen nodet" style="rounded=1;whiteSpace=wrap;html=1;" vertex="1" parent="1">
          <mxGeometry x="155" y="280" width="80" height="40" as="geometry" />
        </mxCell>
        <mxCell id="FdSDNsu2-nvWExT22_5d-18" style="edgeStyle=orthogonalEdgeStyle;rounded=0;orthogonalLoop=1;jettySize=auto;html=1;entryX=1;entryY=0.5;entryDx=0;entryDy=0;" edge="1" parent="1" source="FdSDNsu2-nvWExT22_5d-16" target="FdSDNsu2-nvWExT22_5d-6">
          <mxGeometry relative="1" as="geometry" />
        </mxCell>
        <mxCell id="FdSDNsu2-nvWExT22_5d-16" value="Powershell, defender ja anti-virus -lokit" style="rounded=1;whiteSpace=wrap;html=1;" vertex="1" parent="1">
          <mxGeometry x="160" y="340" width="90" height="50" as="geometry" />
        </mxCell>
        <mxCell id="FdSDNsu2-nvWExT22_5d-20" style="edgeStyle=orthogonalEdgeStyle;rounded=0;orthogonalLoop=1;jettySize=auto;html=1;entryX=1;entryY=0.5;entryDx=0;entryDy=0;" edge="1" parent="1" source="FdSDNsu2-nvWExT22_5d-19" target="FdSDNsu2-nvWExT22_5d-6">
          <mxGeometry relative="1" as="geometry" />
        </mxCell>
        <mxCell id="FdSDNsu2-nvWExT22_5d-19" value="SIEM sääntöjen räätälöinti" style="rounded=1;whiteSpace=wrap;html=1;" vertex="1" parent="1">
          <mxGeometry x="160" y="390" width="90" height="40" as="geometry" />
        </mxCell>
        <mxCell id="FdSDNsu2-nvWExT22_5d-22" style="edgeStyle=orthogonalEdgeStyle;rounded=0;orthogonalLoop=1;jettySize=auto;html=1;" edge="1" parent="1" source="FdSDNsu2-nvWExT22_5d-21">
          <mxGeometry relative="1" as="geometry">
            <mxPoint x="120" y="390" as="targetPoint" />
            <Array as="points">
              <mxPoint x="140" y="440" />
              <mxPoint x="140" y="390" />
            </Array>
          </mxGeometry>
        </mxCell>
        <mxCell id="FdSDNsu2-nvWExT22_5d-21" value="Hälyt" style="rounded=1;whiteSpace=wrap;html=1;" vertex="1" parent="1">
          <mxGeometry x="165" y="430" width="60" height="20" as="geometry" />
        </mxCell>
        <mxCell id="FdSDNsu2-nvWExT22_5d-26" style="edgeStyle=orthogonalEdgeStyle;rounded=0;orthogonalLoop=1;jettySize=auto;html=1;entryX=1;entryY=0.5;entryDx=0;entryDy=0;" edge="1" parent="1" source="FdSDNsu2-nvWExT22_5d-23" target="FdSDNsu2-nvWExT22_5d-2">
          <mxGeometry relative="1" as="geometry" />
        </mxCell>
        <mxCell id="FdSDNsu2-nvWExT22_5d-23" value="SIM, SEM, SIEM ja SOAR" style="rounded=1;whiteSpace=wrap;html=1;fillColor=#ffffff;fontSize=11;" vertex="1" parent="1">
          <mxGeometry x="150" y="15" width="90" height="30" as="geometry" />
        </mxCell>
        <mxCell id="FdSDNsu2-nvWExT22_5d-28" style="edgeStyle=orthogonalEdgeStyle;rounded=0;orthogonalLoop=1;jettySize=auto;html=1;entryX=1;entryY=0.5;entryDx=0;entryDy=0;fontSize=11;" edge="1" parent="1" source="FdSDNsu2-nvWExT22_5d-27" target="FdSDNsu2-nvWExT22_5d-1">
          <mxGeometry relative="1" as="geometry" />
        </mxCell>
        <mxCell id="FdSDNsu2-nvWExT22_5d-27" value="IT ympäristön valvonta" style="rounded=1;whiteSpace=wrap;html=1;fillColor=#ffffff;fontSize=11;" vertex="1" parent="1">
          <mxGeometry x="152.5" y="105" width="90" height="30" as="geometry" />
        </mxCell>
        <mxCell id="FdSDNsu2-nvWExT22_5d-30" style="edgeStyle=orthogonalEdgeStyle;rounded=0;orthogonalLoop=1;jettySize=auto;html=1;entryX=1;entryY=0.5;entryDx=0;entryDy=0;fontSize=11;" edge="1" parent="1" source="FdSDNsu2-nvWExT22_5d-29" target="FdSDNsu2-nvWExT22_5d-3">
          <mxGeometry relative="1" as="geometry" />
        </mxCell>
        <mxCell id="FdSDNsu2-nvWExT22_5d-29" value="MSP:n ja web palvelutuottajan näkökulma" style="rounded=1;whiteSpace=wrap;html=1;fontSize=11;fillColor=#ffffff;" vertex="1" parent="1">
          <mxGeometry x="152.5" y="190" width="85" height="40" as="geometry" />
        </mxCell>
      </root>
    </mxGraphModel>
  </diagram>
</mxfile>
